<svg id="Layer_1" data-name="Layer 1" xmlns="http://www.w3.org/2000/svg" viewBox="0 0 80.21 80.03"><defs><style>.cls-1{fill:#ffc107;}.cls-2{fill:#dd8505;}.cls-3{fill:#fff;}.cls-4{fill:#1d1d1b;}</style></defs><rect class="cls-1" width="80.21" height="80.03"/><ellipse class="cls-2" cx="28" cy="31.4" rx="7.07" ry="7.05"/><path class="cls-3" d="M29.51,27.52a19.38,19.38,0,0,0-6.1-1.72,7.06,7.06,0,1,0,10.7,8.57,6.89,6.89,0,0,0,.65-3.3A19.57,19.57,0,0,0,29.51,27.52Z" transform="translate(0.29 0)"/><path class="cls-4" d="M27.7,38.81a7.41,7.41,0,0,1-4.4-13.38,20,20,0,0,1,6.37,1.76h0a20.24,20.24,0,0,1,5.45,3.72,7.43,7.43,0,0,1-7.42,7.9ZM23.51,26.18a6.7,6.7,0,1,0,10.9,5.05A19.39,19.39,0,0,0,23.51,26.18Z" transform="translate(0.29 0)"/><ellipse class="cls-4" cx="25.71" cy="30.08" rx="3.01" ry="3"/><path class="cls-4" d="M22,25c4.82-.71,11.06,2.24,14.1,6.86a.4.4,0,0,1-.12.56.39.39,0,0,1-.47,0,26.88,26.88,0,0,0-11.72-5.55l-1.84-.42a.72.72,0,0,1-.55-.87A.71.71,0,0,1,22,25Z" transform="translate(0.29 0)"/><path class="cls-4" d="M51.69,63.15a16.94,16.94,0,0,0-.34-3.8c-.29-1.47-.69-2.75-.93-3.78a.35.35,0,0,1,.26-.41.34.34,0,0,1,.37.15c1.41,2.2,2.18,5.55,1.22,8A.3.3,0,0,1,51.69,63.15Z" transform="translate(0.29 0)"/><ellipse class="cls-2" cx="52.19" cy="34.63" rx="7.07" ry="7.05"/><path class="cls-3" d="M53.7,30.75A19.36,19.36,0,0,0,47.59,29a7.18,7.18,0,0,0-2.11,2.62A7.07,7.07,0,1,0,59,34.3,19.72,19.72,0,0,0,53.7,30.75Z" transform="translate(0.29 0)"/><path class="cls-4" d="M48.76,41.35a7.41,7.41,0,0,1-1.27-12.69,20.13,20.13,0,0,1,6.36,1.76h0a19.65,19.65,0,0,1,5.45,3.72A7.42,7.42,0,0,1,48.76,41.35ZM47.7,29.41a6.54,6.54,0,0,0-1.89,2.4A6.7,6.7,0,0,0,58,37.45a6.59,6.59,0,0,0,.62-3A19.41,19.41,0,0,0,47.7,29.41Z" transform="translate(0.29 0)"/><ellipse class="cls-4" cx="49.9" cy="33.31" rx="3.01" ry="3"/><path class="cls-4" d="M46.17,28.21c4.81-.71,11,2.24,14.1,6.86a.41.41,0,0,1-.6.54A26.89,26.89,0,0,0,48,30.06l-1.85-.42a.73.73,0,0,1-.55-.87A.72.72,0,0,1,46.17,28.21Z" transform="translate(0.29 0)"/><path class="cls-4" d="M60.05,25.53c-3.5,1.84-9.89,2.32-13.22.77a1.36,1.36,0,0,1,.77-2.57c.48.07.56.1.83.14a113.94,113.94,0,0,0,11.39.72A.5.5,0,0,1,60.05,25.53Z" transform="translate(0.29 0)"/><path class="cls-4" d="M22.76,12.62a4.46,4.46,0,0,1,2.16-1.21C27.5,11,28.87,13,31.39,14.85a14.39,14.39,0,0,1,3,2.54l.11.16a1.49,1.49,0,0,1-.37,2.09c-1,.72-3.13,0-4.3-.85-2.56-1.9-3.84-4.91-4.68-5.08a2,2,0,0,0-.39-.1,6.06,6.06,0,0,0-1.47.11A.64.64,0,0,1,22.76,12.62Z" transform="translate(0.29 0)"/><path class="cls-2" d="M29.07,53.81c2.88-6,12.52-6.18,17.8,2.66,3.08,5.16.76,6.94-2.49,4.53-4.79-3.55-8-4.52-10.25-3.85C30.2,58.3,27.62,56.84,29.07,53.81Z" transform="translate(0.29 0)"/><path class="cls-4" d="M28.64,53.61c3.53-6.73,14-6.8,19.48,2.49C49,57.69,50,60,49.32,61.69a2.42,2.42,0,0,1-1.89,1.52c-2.4.28-3.56-1.46-6.53-3.4a11.39,11.39,0,0,0-5.48-2.2A4.74,4.74,0,0,0,34,57.8C29.32,58.86,27.3,56.51,28.64,53.61ZM30.76,57a6.77,6.77,0,0,0,3.11-.38c3.5-1.13,7.78,1.21,10.82,3.28a5.94,5.94,0,0,0,1.78.93c.42.11.61,0,.57,0s.35-.28-.47-2.18a15.81,15.81,0,0,0-6.82-7.46c-3.87-1.89-7.69-.84-9.36,1.4C28.9,54.63,28.3,56.59,30.76,57Z" transform="translate(0.29 0)"/></svg>